PathFileType	3	(X/Y/Z)	D:\Jess\PFP\Labelled\PA24\20251014\SRRun01.trc
DataRate	CameraRate	NumFrames	NumMarkers	Units	OrigDataRate	OrigDataStartFrame	OrigNumFrames
250.0	250.0	4	33	mm	250.0	36563	2501
Frame#	Time	C7			T10			CLAV			LSHO			RSHO			LASIS			RASIS			LPSIS			RPSIS			LILCR			RILCR			LGTR			LTHI			LLTHI			LLEP			LPSH			LLSH			LDSH			LLMAL			LTOE			L5TH			LHEE			RGTR			RTHI			RLTHI			RLEP			RPSH			RLSH			RDSH			RLMAL			RTOE			R5TH			RHEE			
		X1	Y1	Z1	X2	Y2	Z2	X3	Y3	Z3	X4	Y4	Z4	X5	Y5	Z5	X6	Y6	Z6	X7	Y7	Z7	X8	Y8	Z8	X9	Y9	Z9	X10	Y10	Z10	X11	Y11	Z11	X12	Y12	Z12	X13	Y13	Z13	X14	Y14	Z14	X15	Y15	Z15	X16	Y16	Z16	X17	Y17	Z17	X18	Y18	Z18	X19	Y19	Z19	X20	Y20	Z20	X21	Y21	Z21	X22	Y22	Z22	X23	Y23	Z23	X24	Y24	Z24	X25	Y25	Z25	X26	Y26	Z26	X27	Y27	Z27	X28	Y28	Z28	X29	Y29	Z29	X30	Y30	Z30	X31	Y31	Z31	X32	Y32	Z32	X33	Y33	Z33	

1564	146.248	826.5724122342622	1406.398629753536	-929.4668951616115	843.129505763335	1182.164220920267	-845.5272012608751	803.7367045682375	1299.100312409429	-1033.641497857223	645.4966096387985	1356.999890560381	-945.3902239608215	960.1628141436126	1365.035599749964	-1020.506073300938	711.2639825071923	966.5863825026059	-949.4980603395376	977.6028825491875	951.2677615772262	-958.3796775458458	815.5852049312253	990.3947675264415	-780.7781807191933	865.7045184217529	986.2941363354702	-780.8941024200939	687.1905235830178	1026.962517979785	-903.3775405108967	986.2124443518313	1025.92555143506	-920.8991532549599	666.6677417265495	912.9753193686862	-907.8235593712596	758.5155278611231	781.8511554034111	-1045.842952499859	704.2595689497664	638.8810852977692	-987.7481850573026	748.3743312733828	472.0028097945706	-1034.373492957625	809.6272637131988	387.177051129242	-1061.221117398361	761.6514804242877	289.0991210440127	-950.0112035325712	827.4958954135162	185.6730264505788	-954.0187955896313	802.3807213498585	100.8886213465703	-864.3944724089284	790.3355830503463	63.08581145466688	-1002.522924887775	753.082103577423	41.95194035555649	-957.5812239004132	853.8462737701292	74.13288897189287	-794.7105483070559	1027.806347110611	880.9293520265613	-900.3259818273115	957.4500328334603	718.7040555465876	-1030.440470831735	1017.099118177876	615.521555139263	-951.3755413233282	996.9271499810039	449.240295442053	-955.9580326945731	936.4091013523715	375.0683891342085	-923.0162294979228	984.8066559012449	409.661198078097	-781.8937498061237	927.5765210908859	337.1490628068958	-694.2144133329923	952.7271136248659	367.6423074881515	-585.0026525775716	961.3459040030276	223.6971568493756	-524.1122950588075	984.9232442247539	275.0392092714444	-499.0096182919694	890.4220583409808	427.3964284551857	-555.6310825345029	
1565	146.252	826.6786051931994	1405.957942566625	-929.3495666139413	842.949471308563	1181.962925597579	-844.7842746900601	804.5038917968333	1297.990512800842	-1033.350485044768	645.4819812943992	1356.140552193544	-946.5188253336462	960.4989946228052	1363.879322966154	-1019.99690760881	711.5933052546496	965.9387854260539	-949.1013766586073	978.0267041395346	951.1618260111566	-956.5216686121429	814.6631923568533	990.2402566904208	-779.9462124695326	864.7403840543629	986.1833589277005	-779.8215044983149	687.2005232475066	1026.701461574912	-902.8413778949741	986.4927961576392	1025.607492012544	-918.5750307320197	666.6539090400895	912.3147638654067	-907.5129914672117	759.1418599871652	779.7410689004903	-1043.356094828543	704.1742814044044	637.142679011209	-983.7710071785267	748.1713337450999	469.3498478471113	-1028.138890175887	809.191990254021	384.191983420831	-1054.261791040623	761.935521951432	287.5992908730389	-941.7257493769737	827.6199845173447	184.4427460363654	-944.5413397162582	802.6844520897757	101.0122962285667	-853.8112544779425	790.3557721744415	62.8250723101042	-991.635532560266	753.1271714212485	41.86042132327436	-946.5934074465457	854.2007832135796	74.39436966555851	-784.0022616116376	1027.42781153481	880.6026886655951	-898.2277208509282	956.9564475746677	720.3497946898067	-1032.128433135545	1017.282617493438	616.1129844097534	-955.4680797425166	997.0348472518233	449.9561975385202	-963.8495238927555	936.2187662154522	375.8295905069313	-931.2799877366149	985.5090208622101	409.3099087674461	-790.2665156087322	928.1498030573611	336.513049220137	-702.5954905052598	954.0751892779706	365.9875484920594	-593.2860136392436	962.5364861780815	220.9889413719215	-534.979482921162	986.8297955245074	271.7410121670295	-509.3011610440722	892.5109023153425	425.7032399094019	-561.8085046301578	
1566	146.256	826.7638143015594	1405.673348549519	-929.2242688169931	842.6977978978642	1181.907647747784	-844.0755453364585	805.291925462931	1297.156931044545	-1033.083947138613	645.5451598391495	1355.577582695199	-947.7536580034412	960.8682131568019	1363.000532239103	-1019.346009800755	711.9139154696688	965.3336688899756	-948.7415541877386	978.4384050812248	951.2895626801228	-954.6819616337494	813.6708297514629	990.201097825014	-779.1439243962249	863.703834416339	986.2243558421829	-778.7763840247413	687.2245546488901	1026.505392054312	-902.42138192945	986.7252810790504	1025.526958606857	-916.2743382509399	666.64129522895	911.6625262762162	-907.2442740370539	759.5341049419707	777.4272977798737	-1040.957336768919	704.1282615340978	635.4190491244586	-979.5311610570807	747.9604736140642	466.7392779299023	-1021.644298355527	808.8333978849556	381.2931384286284	-1047.015100001887	762.2092192271613	286.1332721175496	-933.29324774924	827.7516333559641	183.2632845856264	-934.9654529942769	802.9832189433416	101.1284777891409	-843.1879857994891	790.3924524673627	62.54939282400151	-980.7384480171335	753.1827858895107	41.75324035780481	-935.5938551880836	854.560191259723	74.64831066193595	-773.2649650952786	1027.030592110819	880.5109105991985	-896.084130227954	956.5437067747782	722.2489772496289	-1033.72622200462	1017.44056877197	617.0159537748415	-959.5334535165368	997.0532898570923	451.0126152687467	-971.6515065281826	935.9655559221876	376.8760647277043	-939.5352532849806	986.1198391391791	409.035640461643	-798.5964888018756	928.6788114146551	335.7646631701704	-711.047010141348	955.3606610564661	364.0288508761826	-601.5882358302787	963.6723891990921	217.926586308136	-546.1405846746659	988.636243731656	268.0345854472333	-519.7911437660832	894.515332545299	423.5902793373685	-567.9337282781704	
1567	146.26	826.8232478197456	1405.545808901685	-929.089321717178	842.3647968446279	1181.994089346966	-843.4086063661481	806.1011249170302	1296.6038753608	-1032.84379012155	645.6772880694501	1355.301803415069	-949.0885043711644	961.2874982105591	1362.411951256516	-1018.540094216178	712.2125866242857	964.7805464039247	-948.4224632420495	978.8300684416646	951.6309977483081	-952.8718367227739	812.6264088310804	990.2810709244686	-778.3779219708898	862.614280308503	986.4119381268546	-777.7634191471109	687.2563996512515	1026.378350643974	-902.1260239589631	986.9101882606625	1025.663549874192	-914.0205876914436	666.6278298911861	911.034067363046	-907.0086410801645	759.6797136291545	774.9295551222491	-1038.648514477111	704.1161999986751	633.7420597249488	-975.060825734898	747.7501722004363	464.2152424653172	-1014.930357399434	808.5611503740481	378.5235089914417	-1039.51056216459	762.4696279608021	284.7354797753987	-924.7379075161595	827.8888566465714	182.1593455200191	-925.3049857498449	803.2723333316036	101.2525704441165	-832.5355853227799	790.4413143294444	62.26700294381976	-969.8376524016219	753.2467887227097	41.63970246037398	-924.5880541059297	854.9179937579861	74.90789916148942	-762.5046160324846	1026.620244273812	880.6361313860539	-893.9205178192691	956.2258096066192	724.3971572591696	-1035.227705188379	1017.569406526933	618.2276388233249	-963.5484324612653	996.9876113754052	452.4123071424739	-979.3321952843946	935.6567657533205	378.2064876057366	-947.757440716949	986.6423276513578	408.8340475320339	-806.8601976220991	929.1644586251361	334.9046931085063	-719.5535934731913	956.5805470394556	361.7702400906983	-609.9005629037663	964.7555229157219	214.5374369119716	-557.5807856464634	990.3393405757275	263.9473634079942	-530.4698204456068	896.4238800433795	421.0489275288773	-574.0140063465157	
